<svg width="8" height="8" viewBox="0 0 8 8" fill="none" xmlns="http://www.w3.org/2000/svg">
<path d="M7.31525 6.13663L7.3728 6.19993C7.63961 6.52724 7.6203 7.0101 7.31525 7.31515C7.01021 7.62019 6.52735 7.6395 6.20004 7.37269L6.13674 7.31515L0.244188 1.42259C-0.0812493 1.09715 -0.0812493 0.569515 0.244188 0.244078C0.569624 -0.0813592 1.09726 -0.0813592 1.4227 0.244078L7.31525 6.13663Z" fill="currentColor"/>
<path d="M1.4227 7.31515L1.3594 7.37269C1.03209 7.6395 0.549231 7.62019 0.244187 7.31515C-0.0608566 7.0101 -0.080171 6.52724 0.186643 6.19993L0.244187 6.13663L6.13674 0.244078C6.46218 -0.0813592 6.98982 -0.0813592 7.31525 0.244078C7.64069 0.569515 7.64069 1.09715 7.31525 1.42259L1.4227 7.31515Z" fill="currentColor"/>
</svg>
