<svg width="17" height="17" viewBox="0 0 17 17" fill="currentColor" xmlns="http://www.w3.org/2000/svg">
<path d="M0.111532 11.0592L1.7782 13.9425C1.88885 14.1338 2.07092 14.2732 2.28439 14.3303C2.49785 14.3873 2.72523 14.3572 2.91653 14.2467L4.07986 13.575C4.5632 13.9558 5.09737 14.2683 5.65903 14.5017V15.8333C5.65903 16.0543 5.74683 16.2663 5.90311 16.4226C6.05939 16.5789 6.27135 16.6667 6.49237 16.6667H9.8257C10.0467 16.6667 10.2587 16.5789 10.415 16.4226C10.5712 16.2663 10.659 16.0543 10.659 15.8333V14.5017C11.2251 14.266 11.7564 13.9542 12.2382 13.575L13.4015 14.2467C13.799 14.4758 14.3107 14.3383 14.5399 13.9425L16.2065 11.0592C16.3162 10.8677 16.3458 10.6406 16.2888 10.4274C16.2318 10.2142 16.0929 10.0321 15.9024 9.92083L14.759 9.26C14.8484 8.64541 14.8478 8.02109 14.7574 7.40667L15.9007 6.74583C16.2974 6.51667 16.4349 6.00417 16.2049 5.6075L14.5382 2.72417C14.4275 2.53291 14.2455 2.39343 14.032 2.3364C13.8185 2.27936 13.5912 2.30943 13.3999 2.42L12.2365 3.09167C11.7553 2.71198 11.2242 2.40018 10.6582 2.165V0.833333C10.6582 0.61232 10.5704 0.400358 10.4141 0.244078C10.2578 0.0877973 10.0459 0 9.82487 0H6.49153C6.27052 0 6.05856 0.0877973 5.90228 0.244078C5.746 0.400358 5.6582 0.61232 5.6582 0.833333V2.165C5.09214 2.40067 4.56085 2.71244 4.07903 3.09167L2.91653 2.42C2.82184 2.36514 2.71726 2.32949 2.60877 2.31509C2.50029 2.30068 2.39003 2.30781 2.2843 2.33606C2.17857 2.36431 2.07945 2.41313 1.99261 2.47973C1.90577 2.54632 1.83291 2.62939 1.7782 2.72417L0.111532 5.6075C0.00185543 5.799 -0.0277183 6.02608 0.0292512 6.23929C0.0862207 6.4525 0.225119 6.63456 0.415699 6.74583L1.55903 7.40667C1.46914 8.02117 1.46914 8.64549 1.55903 9.26L0.415699 9.92083C0.0190322 10.15 -0.118468 10.6625 0.111532 11.0592ZM8.1582 5C9.99653 5 11.4915 6.495 11.4915 8.33333C11.4915 10.1717 9.99653 11.6667 8.1582 11.6667C6.31987 11.6667 4.82487 10.1717 4.82487 8.33333C4.82487 6.495 6.31987 5 8.1582 5Z"/>
</svg>
