<svg width="36" height="36" viewBox="0 0 36 36" fill="currentColor" xmlns="http://www.w3.org/2000/svg">
<path d="M16.0893 4.57369C16.9697 3.15773 19.0305 3.15773 19.9108 4.57369L23.5476 10.423C23.8574 10.9211 24.3495 11.2787 24.919 11.4193L31.6058 13.0706C33.2245 13.4703 33.8613 15.4303 32.7867 16.7051L28.3476 21.9714C27.9695 22.42 27.7815 22.9984 27.8238 23.5835L28.3197 30.4534C28.4397 32.1164 26.7725 33.3277 25.228 32.6996L18.8476 30.1051C18.3042 29.8841 17.6959 29.8841 17.1525 30.1051L10.7722 32.6996C9.22766 33.3277 7.56043 32.1164 7.68047 30.4534L8.17635 23.5835C8.21859 22.9984 8.03063 22.42 7.65254 21.9714L3.21339 16.7051C2.13878 15.4303 2.77561 13.4703 4.39432 13.0706L11.0811 11.4193C11.6507 11.2787 12.1427 10.9211 12.4525 10.423L16.0893 4.57369Z" fill="#currentColor"/>
</svg>
