<svg viewBox="0 0 79 19" fill="none" xmlns="http://www.w3.org/2000/svg">
<path d="M8.71236 10.5822C8.58036 10.5822 8.44103 10.5675 8.29436 10.5382C8.16236 10.4942 8.03036 10.4282 7.89836 10.3402C7.78103 10.2522 7.67836 10.1349 7.59036 9.9882C7.50236 9.84154 7.45103 9.6582 7.43636 9.4382C7.40703 9.1742 7.42169 8.89554 7.48036 8.6022C7.55369 8.2942 7.75903 8.05954 8.09636 7.8982C8.22836 7.82487 8.38969 7.78087 8.58036 7.7662C8.78569 7.75154 8.96169 7.75154 9.10836 7.7662H10.1644V3.1682C10.1644 2.97754 10.1644 2.78687 10.1644 2.5962C10.1644 2.39087 10.1864 2.19287 10.2304 2.0022C10.2597 1.92887 10.2817 1.86287 10.2964 1.8042C10.3257 1.74554 10.355 1.67954 10.3844 1.6062C10.4724 1.45954 10.5604 1.34954 10.6484 1.2762C10.7364 1.1882 10.861 1.11487 11.0224 1.0562C11.0957 1.02687 11.169 1.0122 11.2424 1.0122C11.3304 0.997536 11.411 0.990202 11.4844 0.990202C11.9684 0.990202 12.335 1.2102 12.5844 1.6502C12.643 1.7382 12.6797 1.86287 12.6944 2.0242C12.7237 2.18554 12.7457 2.3542 12.7604 2.5302C12.775 2.69154 12.7824 2.8382 12.7824 2.9702C12.7824 3.08754 12.7824 3.16087 12.7824 3.1902V13.5962V15.9942C12.7824 16.3609 12.7677 16.6542 12.7384 16.8742C12.7237 17.0942 12.6577 17.3729 12.5404 17.7102C12.467 17.9302 12.3424 18.1135 12.1664 18.2602C11.9904 18.4069 11.741 18.4802 11.4184 18.4802C11.3304 18.4802 11.2204 18.4655 11.0884 18.4362C10.9564 18.4215 10.8537 18.3849 10.7804 18.3262C10.6337 18.2382 10.5164 18.0989 10.4284 17.9082C10.355 17.7029 10.2964 17.4902 10.2524 17.2702C10.2084 17.0502 10.179 16.8375 10.1644 16.6322C10.1644 16.4269 10.1644 16.2655 10.1644 16.1482V10.6482L8.71236 10.5822ZM16.5884 3.6962C16.6177 4.81087 16.625 5.92554 16.6104 7.0402C16.5957 8.15487 16.5884 9.23287 16.5884 10.2742V15.7742C16.5884 16.1555 16.5737 16.5222 16.5444 16.8742C16.5297 17.2262 16.449 17.5562 16.3024 17.8642C16.2144 18.0549 16.075 18.2162 15.8844 18.3482C15.723 18.4509 15.5764 18.5095 15.4444 18.5242C15.327 18.5535 15.173 18.5462 14.9824 18.5022C14.7624 18.4582 14.5864 18.3629 14.4544 18.2162C14.3224 18.0842 14.2197 17.9302 14.1464 17.7542C14.0877 17.5782 14.051 17.3875 14.0364 17.1822C14.0217 16.9769 14.0144 16.7789 14.0144 16.5882V3.3662C14.0144 3.20487 14.0144 3.02154 14.0144 2.8162C14.0144 2.5962 14.029 2.39087 14.0584 2.2002C14.0877 1.99487 14.1244 1.8042 14.1684 1.6282C14.227 1.4522 14.3077 1.31287 14.4104 1.2102C14.5717 1.06354 14.7257 0.975535 14.8724 0.946203C15.019 0.902202 15.195 0.880202 15.4004 0.880202C15.6497 0.880202 15.8404 0.953535 15.9724 1.1002C16.119 1.2322 16.2364 1.41554 16.3244 1.6502C16.4564 1.9582 16.5224 2.29554 16.5224 2.6622C16.537 3.02887 16.559 3.37354 16.5884 3.6962ZM7.19436 3.0142C7.69303 3.0142 8.11103 3.05087 8.44836 3.1242C8.78569 3.19754 9.05703 3.4322 9.26236 3.8282C9.36503 4.01887 9.42369 4.2242 9.43836 4.4442C9.45303 4.64954 9.42369 4.83287 9.35036 4.9942C9.18903 5.37554 8.89569 5.60287 8.47036 5.6762C8.17703 5.70554 7.87636 5.72754 7.56836 5.7422C7.27503 5.75687 6.83503 5.74954 6.24836 5.7202C6.23369 6.18954 6.22636 6.5342 6.22636 6.7542C6.24103 6.95954 6.24836 7.09887 6.24836 7.1722V9.7022C6.24836 9.81954 6.25569 9.97354 6.27036 10.1642C6.28503 10.3402 6.29236 10.4722 6.29236 10.5602C6.39503 10.6775 6.48303 10.8462 6.55636 11.0662C6.64436 11.2715 6.74703 11.4402 6.86436 11.5722C6.98169 11.7335 7.09903 11.9095 7.21636 12.1002C7.34836 12.2762 7.48769 12.4669 7.63436 12.6722C7.70769 12.7895 7.78103 12.9142 7.85436 13.0462C7.94236 13.1635 8.01569 13.2735 8.07436 13.3762C8.27969 13.7429 8.49969 14.1462 8.73436 14.5862C8.98369 15.0115 9.15236 15.4369 9.24036 15.8622C9.26969 16.0529 9.26969 16.2655 9.24036 16.5002C9.21103 16.7202 9.12303 16.9035 8.97636 17.0502C8.81503 17.2555 8.58769 17.3582 8.29436 17.3582C8.03036 17.3582 7.77369 17.2702 7.52436 17.0942C7.27503 16.9182 7.06969 16.7422 6.90836 16.5662C6.68836 16.2875 6.48303 16.0015 6.29236 15.7082C6.10169 15.4149 5.90369 15.1215 5.69836 14.8282C5.58103 14.6229 5.43436 14.3955 5.25836 14.1462C5.09703 13.8969 4.92836 13.6842 4.75236 13.5082C4.60569 13.7282 4.45169 13.9555 4.29036 14.1902C4.14369 14.4102 4.00436 14.6449 3.87236 14.8942C3.71103 15.1875 3.54236 15.4735 3.36636 15.7522C3.19036 16.0162 2.99969 16.2729 2.79436 16.5222C2.29569 17.1089 1.81903 17.4022 1.36436 17.4022C1.23236 17.4022 1.12236 17.3802 1.03436 17.3362C0.770359 17.2775 0.579693 17.0869 0.462359 16.7642C0.389026 16.5442 0.359693 16.2949 0.374359 16.0162C0.403693 15.7375 0.462359 15.4955 0.550359 15.2902C0.653026 15.0702 0.763026 14.8575 0.880359 14.6522C0.997693 14.4469 1.11503 14.2415 1.23236 14.0362C1.30569 13.9189 1.37903 13.8015 1.45236 13.6842C1.54036 13.5522 1.62103 13.4275 1.69436 13.3102C1.79703 13.1049 1.93636 12.8629 2.11236 12.5842C2.28836 12.3055 2.45703 12.0342 2.61836 11.7702C2.79436 11.5062 2.95569 11.2642 3.10236 11.0442C3.24903 10.8242 3.35903 10.6702 3.43236 10.5822V5.7202H2.59636C2.15636 5.7202 1.81169 5.7202 1.56236 5.7202C1.32769 5.7202 1.16636 5.70554 1.07836 5.6762C0.873026 5.6322 0.689693 5.53687 0.528359 5.3902C0.381693 5.22887 0.271693 5.02354 0.198359 4.7742C0.0663594 4.36354 0.103026 3.98954 0.308359 3.6522C0.425693 3.49087 0.557693 3.35887 0.704359 3.2562C0.851026 3.13887 1.00503 3.06554 1.16636 3.0362C1.22503 3.02154 1.29103 3.0142 1.36436 3.0142C1.45236 3.0142 1.53303 3.0142 1.60636 3.0142H3.52036C3.52036 2.8822 3.52769 2.72087 3.54236 2.5302C3.55703 2.32487 3.57169 2.12687 3.58636 1.9362C3.61569 1.73087 3.64503 1.5402 3.67436 1.3642C3.70369 1.17354 3.74769 1.01954 3.80636 0.902202C3.87969 0.770202 3.98236 0.652869 4.11436 0.550202C4.24636 0.447535 4.38569 0.374202 4.53236 0.330203C4.69369 0.271536 4.84769 0.249536 4.99436 0.264202C5.15569 0.264202 5.30236 0.300869 5.43436 0.374202C5.72769 0.550202 5.92569 0.850869 6.02836 1.2762C6.14569 1.68687 6.20436 2.2662 6.20436 3.0142H7.19436ZM20.0881 18.3042C20.0734 18.3042 20.0514 18.2895 20.0221 18.2602C19.8754 18.1429 19.7727 17.9742 19.7141 17.7542C19.6701 17.5195 19.6481 17.3215 19.6481 17.1602C19.6334 16.8962 19.6114 16.6322 19.5821 16.3682C19.5674 16.1042 19.5601 15.8475 19.5601 15.5982C19.5601 15.2169 19.5601 14.8429 19.5601 14.4762C19.5601 14.1095 19.5967 13.7429 19.6701 13.3762C19.7141 13.1415 19.7874 12.9582 19.8901 12.8262C19.9927 12.6795 20.1541 12.5622 20.3741 12.4742C20.7847 12.3129 21.1954 12.2322 21.6061 12.2322H31.9681C32.2467 12.2469 32.5327 12.2689 32.8261 12.2982C33.1194 12.3275 33.3981 12.4009 33.6621 12.5182C33.9554 12.6355 34.1461 12.8335 34.2341 13.1122C34.3367 13.3762 34.4027 13.6549 34.4321 13.9482C34.4467 14.1975 34.4541 14.4909 34.4541 14.8282C34.4687 15.1509 34.4687 15.4809 34.4541 15.8182C34.4394 16.1555 34.4174 16.4929 34.3881 16.8302C34.3587 17.1529 34.3074 17.4462 34.2341 17.7102C34.1901 17.8715 34.1387 18.0109 34.0801 18.1282C34.0214 18.2602 33.9041 18.3555 33.7281 18.4142C33.5667 18.4729 33.3981 18.5095 33.2221 18.5242C33.0607 18.5389 32.8994 18.5462 32.7381 18.5462L21.2761 18.5022C21.0854 18.4875 20.8801 18.4802 20.6601 18.4802C20.4401 18.4802 20.2494 18.4215 20.0881 18.3042ZM28.6901 6.9302C28.6901 7.61954 28.5361 8.2722 28.2281 8.8882C27.9201 9.5042 27.4874 10.0249 26.9301 10.4502C26.5487 10.7289 26.1454 10.9415 25.7201 11.0882C25.2947 11.2349 24.8547 11.3302 24.4001 11.3742C23.9454 11.4035 23.4907 11.3889 23.0361 11.3302C22.5961 11.2569 22.1707 11.1322 21.7601 10.9562C21.3494 10.7949 20.9607 10.5822 20.5941 10.3182C20.2421 10.0542 19.9341 9.75354 19.6701 9.4162C19.4061 9.07887 19.2007 8.70487 19.0541 8.2942C18.9074 7.86887 18.8341 7.4142 18.8341 6.9302C18.8341 6.32887 18.9221 5.80087 19.0981 5.3462C19.2741 4.87687 19.5161 4.45887 19.8241 4.0922H19.4281C19.0614 4.0922 18.7534 3.9822 18.5041 3.7622C18.2547 3.52754 18.1301 3.24887 18.1301 2.9262C18.1301 2.58887 18.2547 2.3102 18.5041 2.0902C18.7534 1.85554 19.0614 1.7382 19.4281 1.7382H22.3321V1.0342C22.3321 0.740869 22.4567 0.498869 22.7061 0.308203C22.9554 0.10287 23.2561 0.000202894 23.6081 0.000202894C23.9601 0.000202894 24.2607 0.10287 24.5101 0.308203C24.7594 0.498869 24.8841 0.740869 24.8841 1.0342V1.7382H27.9421C28.3087 1.7382 28.6167 1.85554 28.8661 2.0902C29.1154 2.3102 29.2401 2.58887 29.2401 2.9262C29.2401 3.24887 29.1154 3.52754 28.8661 3.7622C28.6167 3.9822 28.3087 4.0922 27.9421 4.0922H27.6781C27.9861 4.45887 28.2281 4.87687 28.4041 5.3462C28.5947 5.81554 28.6901 6.34354 28.6901 6.9302ZM31.2201 7.3922C30.7947 7.36287 30.4134 7.34087 30.0761 7.3262C29.7387 7.29687 29.4747 7.13554 29.2841 6.8422C29.1961 6.69554 29.1521 6.5122 29.1521 6.2922C29.1521 6.0722 29.1667 5.88154 29.1961 5.7202C29.2401 5.55887 29.3207 5.42687 29.4381 5.3242C29.5554 5.20687 29.7607 5.11154 30.0541 5.0382C30.1127 5.02354 30.2227 5.0162 30.3841 5.0162C30.5454 5.00154 30.7141 4.98687 30.8901 4.9722C31.0807 4.95754 31.2567 4.9502 31.4181 4.9502C31.5794 4.93554 31.6894 4.9282 31.7481 4.9282V2.8162C31.7334 2.65487 31.7261 2.49354 31.7261 2.3322C31.7407 2.17087 31.7701 2.00954 31.8141 1.8482C31.8434 1.73087 31.8727 1.62087 31.9021 1.5182C31.9314 1.41554 31.9974 1.30554 32.1001 1.1882C32.2174 1.04154 32.3787 0.938869 32.5841 0.880202C32.8041 0.821535 33.0387 0.806869 33.2881 0.836203C33.7574 0.909536 34.0581 1.09287 34.1901 1.3862C34.2781 1.5622 34.3294 1.7822 34.3441 2.0462C34.3734 2.29554 34.3881 2.44954 34.3881 2.5082V9.9002H34.3661C34.3661 9.91487 34.3587 9.9662 34.3441 10.0542C34.3294 10.1422 34.3001 10.2522 34.2561 10.3842C34.2121 10.5015 34.1461 10.6262 34.0581 10.7582C33.9701 10.8902 33.8527 11.0002 33.7061 11.0882C33.5007 11.2055 33.2954 11.2642 33.0901 11.2642C32.8407 11.2642 32.5987 11.1835 32.3641 11.0222C32.1881 10.9049 32.0634 10.7582 31.9901 10.5822C31.9021 10.4209 31.8434 10.2595 31.8141 10.0982C31.7847 9.93687 31.7627 9.77554 31.7481 9.6142V7.3922H31.2201ZM24.2021 8.8882C24.6714 8.8002 25.0747 8.59487 25.4121 8.2722C25.7641 7.93487 25.9401 7.48754 25.9401 6.9302C25.9401 6.60754 25.8741 6.32154 25.7421 6.0722C25.6247 5.82287 25.4634 5.61754 25.2581 5.4562C25.0674 5.2802 24.8401 5.1482 24.5761 5.0602C24.3121 4.9722 24.0481 4.9282 23.7841 4.9282C23.5054 4.91354 23.2341 4.9502 22.9701 5.0382C22.7061 5.11154 22.4714 5.22887 22.2661 5.3902C22.0607 5.55154 21.8921 5.7642 21.7601 6.0282C21.6427 6.27754 21.5841 6.5782 21.5841 6.9302C21.5841 7.3262 21.6647 7.66354 21.8261 7.9422C21.9874 8.22087 22.1927 8.44087 22.4421 8.6022C22.6914 8.76354 22.9701 8.8662 23.2781 8.9102C23.5861 8.9542 23.8941 8.94687 24.2021 8.8882ZM22.1781 15.7302C22.1781 15.8035 22.1781 15.8769 22.1781 15.9502C22.1927 16.0089 22.2221 16.0529 22.2661 16.0822C22.2954 16.1115 22.3394 16.1335 22.3981 16.1482C22.4714 16.1482 22.5447 16.1482 22.6181 16.1482C22.6914 16.1482 22.7794 16.1409 22.8821 16.1262H29.7681C29.9734 16.1409 30.1714 16.1555 30.3621 16.1702C30.5234 16.1849 30.6921 16.1922 30.8681 16.1922C31.0441 16.1922 31.2054 16.1775 31.3521 16.1482C31.4987 16.1335 31.5867 16.0969 31.6161 16.0382C31.6454 15.9649 31.6674 15.8622 31.6821 15.7302C31.6967 15.6129 31.7041 15.4809 31.7041 15.3342C31.7041 15.1729 31.6601 15.0335 31.5721 14.9162C31.4694 14.7989 31.3227 14.7402 31.1321 14.7402C30.9561 14.7255 30.7947 14.7255 30.6481 14.7402H24.5321C24.2094 14.7109 23.8941 14.7035 23.5861 14.7182C23.2781 14.7182 22.9627 14.7255 22.6401 14.7402C22.5227 14.7402 22.4274 14.7475 22.3541 14.7622C22.2954 14.7622 22.2514 14.8282 22.2221 14.9602C22.1927 15.0629 22.1781 15.1655 22.1781 15.2682C22.1781 15.3562 22.1781 15.4442 22.1781 15.5322C22.1927 15.5615 22.1927 15.5909 22.1781 15.6202C22.1781 15.6495 22.1781 15.6862 22.1781 15.7302ZM53.5475 6.9302C53.5475 7.61954 53.3935 8.2722 53.0855 8.8882C52.7775 9.5042 52.3448 10.0249 51.7875 10.4502C51.2888 10.8169 50.7388 11.0735 50.1375 11.2202C49.5508 11.3669 48.9568 11.4182 48.3555 11.3742C47.7542 11.3302 47.1748 11.1982 46.6175 10.9782C46.0602 10.7435 45.5615 10.4355 45.1215 10.0542C44.6962 9.67287 44.3515 9.2182 44.0875 8.6902C43.8235 8.1622 43.6915 7.57554 43.6915 6.9302C43.6915 6.34354 43.7795 5.81554 43.9555 5.3462C44.1315 4.87687 44.3735 4.45887 44.6815 4.0922H44.2855C43.9188 4.0922 43.6108 3.9822 43.3615 3.7622C43.1122 3.52754 42.9875 3.24887 42.9875 2.9262C42.9875 2.58887 43.1122 2.3102 43.3615 2.0902C43.6108 1.85554 43.9188 1.7382 44.2855 1.7382H47.1895V1.0342C47.1895 0.740869 47.3142 0.498869 47.5635 0.308203C47.8128 0.10287 48.1135 0.000202894 48.4655 0.000202894C48.8175 0.000202894 49.1182 0.10287 49.3675 0.308203C49.6168 0.498869 49.7415 0.740869 49.7415 1.0342V1.7382H52.7995C53.1662 1.7382 53.4742 1.85554 53.7235 2.0902C53.9728 2.3102 54.0975 2.58887 54.0975 2.9262C54.0975 3.24887 53.9728 3.52754 53.7235 3.7622C53.4742 3.9822 53.1662 4.0922 52.7995 4.0922H52.5355C52.8435 4.45887 53.0855 4.87687 53.2615 5.3462C53.4522 5.81554 53.5475 6.34354 53.5475 6.9302ZM47.5635 18.5022C46.9622 18.5022 46.4782 18.3702 46.1115 18.1062C45.7448 17.8569 45.5615 17.5635 45.5615 17.2262V14.0582C45.5322 13.7355 45.5322 13.4055 45.5615 13.0682C45.5908 12.7602 45.7082 12.5109 45.9135 12.3202C46.1335 12.1295 46.4122 12.0342 46.7495 12.0342C46.8228 12.0342 46.9548 12.0415 47.1455 12.0562C47.3362 12.0562 47.4682 12.0709 47.5415 12.1002C47.7322 12.1589 47.8788 12.2469 47.9815 12.3642C48.0988 12.4815 48.1868 12.6209 48.2455 12.7822C48.3042 12.9289 48.3408 13.0902 48.3555 13.2662C48.3702 13.4275 48.3848 13.5889 48.3995 13.7502C48.3995 13.8089 48.3995 13.9482 48.3995 14.1682C48.4142 14.3735 48.4215 14.6009 48.4215 14.8502C48.4362 15.0849 48.4435 15.3049 48.4435 15.5102C48.4582 15.7155 48.4728 15.8402 48.4875 15.8842C48.5315 15.8989 48.6488 15.9209 48.8395 15.9502C49.0448 15.9649 49.4188 15.9722 49.9615 15.9722C50.4308 15.9722 50.7168 15.9649 50.8195 15.9502C50.9368 15.9355 51.0028 15.9282 51.0175 15.9282H58.2115C58.2115 15.9282 58.2555 15.9429 58.3435 15.9722C58.4462 16.0015 58.5562 16.0529 58.6735 16.1262C58.7908 16.1849 58.9008 16.2729 59.0035 16.3902C59.1062 16.4929 59.1722 16.6175 59.2015 16.7642C59.2748 17.3215 59.1795 17.7542 58.9155 18.0622C58.7395 18.2675 58.5488 18.3922 58.3435 18.4362C58.1382 18.4802 58.0282 18.5022 58.0135 18.5022H47.5635ZM58.5855 7.9422V10.8242C58.5708 10.9855 58.5488 11.1542 58.5195 11.3302C58.4902 11.4915 58.4242 11.6529 58.3215 11.8142C58.2188 12.0049 58.0868 12.1442 57.9255 12.2322C57.6908 12.3935 57.4342 12.4742 57.1555 12.4742C56.9208 12.4742 56.7082 12.4155 56.5175 12.2982C56.3562 12.2102 56.2242 12.1002 56.1215 11.9682C56.0335 11.8362 55.9602 11.7115 55.9015 11.5942C55.8575 11.4769 55.8282 11.3742 55.8135 11.2862C55.7988 11.1835 55.7915 11.1322 55.7915 11.1322V2.7502C55.7915 2.67687 55.7988 2.51554 55.8135 2.2662C55.8428 2.0022 55.9015 1.7822 55.9895 1.6062C56.1508 1.2982 56.4735 1.1222 56.9575 1.0782C57.5002 1.00487 57.9182 1.11487 58.2115 1.4082C58.2995 1.52554 58.3655 1.64287 58.4095 1.7602C58.4535 1.86287 58.4902 1.97287 58.5195 2.0902C58.5635 2.23687 58.5855 2.39087 58.5855 2.5522C58.6002 2.71354 58.6002 2.87487 58.5855 3.0362V5.4782C58.6442 5.4782 58.7615 5.48554 58.9375 5.5002C59.1135 5.51487 59.2968 5.52954 59.4875 5.5442C59.6782 5.5442 59.8542 5.55154 60.0155 5.5662C60.1915 5.58087 60.3088 5.59554 60.3675 5.6102C60.6755 5.66887 60.8955 5.75687 61.0275 5.8742C61.1595 5.97687 61.2475 6.10887 61.2915 6.2702C61.3208 6.43154 61.3355 6.6222 61.3355 6.8422C61.3355 7.04754 61.2915 7.22354 61.2035 7.3702C61.0128 7.66354 60.7342 7.8322 60.3675 7.8762C60.0008 7.9202 59.5828 7.9422 59.1135 7.9422H58.5855ZM49.0595 8.8882C49.5288 8.8002 49.9322 8.59487 50.2695 8.2722C50.6215 7.93487 50.7975 7.48754 50.7975 6.9302C50.7975 6.4902 50.6875 6.12354 50.4675 5.8302C50.2622 5.53687 49.9982 5.31687 49.6755 5.1702C49.3528 5.00887 49.0008 4.9282 48.6195 4.9282C48.2382 4.91354 47.8862 4.97954 47.5635 5.1262C47.2408 5.27287 46.9695 5.5002 46.7495 5.8082C46.5442 6.10154 46.4415 6.47554 46.4415 6.9302C46.4415 7.3262 46.5222 7.66354 46.6835 7.9422C46.8448 8.22087 47.0502 8.44087 47.2995 8.6022C47.5488 8.76354 47.8275 8.8662 48.1355 8.9102C48.4435 8.9542 48.7515 8.94687 49.0595 8.8882ZM70.6011 1.4082C71.5104 1.90687 72.1338 2.5522 72.4711 3.3442C72.8378 4.1802 72.9771 5.1702 72.8891 6.3142C72.8158 7.79554 72.4051 8.89554 71.6571 9.6142C71.3344 9.93687 70.9458 10.1862 70.4911 10.3622C70.0364 10.5235 69.5598 10.6409 69.0611 10.7142C68.5771 10.7729 68.0784 10.7949 67.5651 10.7802C67.0664 10.7655 66.6118 10.7215 66.2011 10.6482C66.0544 10.6189 65.9078 10.5895 65.7611 10.5602C65.6144 10.5162 65.4604 10.4722 65.2991 10.4282C64.9911 10.2962 64.6611 10.1202 64.3091 9.9002C63.5904 9.43087 63.1138 8.82954 62.8791 8.0962C62.6151 7.37754 62.4831 6.62954 62.4831 5.8522C62.4831 5.07487 62.6298 4.3342 62.9231 3.6302C63.0404 3.29287 63.2164 2.97754 63.4511 2.6842C63.6858 2.39087 63.9644 2.12687 64.2871 1.8922C64.7858 1.46687 65.3651 1.15887 66.0251 0.968202C66.6704 0.777535 67.3158 0.718869 67.9611 0.792202C68.1078 0.806869 68.2398 0.821536 68.3571 0.836203C68.4891 0.836203 68.6138 0.836203 68.7311 0.836203C68.8338 0.850869 68.9291 0.865536 69.0171 0.880202C69.1198 0.894869 69.2224 0.916869 69.3251 0.946203C69.5304 1.00487 69.7211 1.06354 69.8971 1.1222C70.0731 1.19554 70.3078 1.29087 70.6011 1.4082ZM66.5971 18.7442C66.4944 18.7442 66.3844 18.7369 66.2671 18.7222C66.1644 18.7222 66.0544 18.7149 65.9371 18.7002C65.8344 18.7002 65.7464 18.6929 65.6731 18.6782C65.3504 18.6342 65.0644 18.5095 64.8151 18.3042C64.7418 18.2309 64.6684 18.1575 64.5951 18.0842C64.5364 18.0255 64.4778 17.9375 64.4191 17.8202C64.3898 17.7322 64.3531 17.6442 64.3091 17.5562C64.2798 17.4535 64.2504 17.3509 64.2211 17.2482C64.1918 17.1455 64.1698 17.0429 64.1551 16.9402C64.1551 16.8229 64.1551 16.7275 64.1551 16.6542C64.1404 16.6102 64.1331 16.5515 64.1331 16.4782V16.4122V14.6742V13.9702C64.1331 13.8089 64.1258 13.6329 64.1111 13.4422C64.1111 13.2515 64.1258 13.0609 64.1551 12.8702C64.1844 12.6795 64.2284 12.5035 64.2871 12.3422C64.3604 12.1809 64.4778 12.0415 64.6391 11.9242C64.7711 11.8215 64.9398 11.7409 65.1451 11.6822C65.3651 11.6235 65.5778 11.6089 65.7831 11.6382C65.9884 11.6529 66.1718 11.7115 66.3331 11.8142C66.4944 11.9169 66.5971 12.0709 66.6411 12.2762C66.6851 12.3935 66.7071 12.5109 66.7071 12.6282C66.7071 12.7309 66.7144 12.8482 66.7291 12.9802C66.7291 13.0389 66.7291 13.0975 66.7291 13.1562C66.7438 13.2002 66.7511 13.2442 66.7511 13.2882V13.4202H66.8611C66.8904 13.4202 66.9271 13.4275 66.9711 13.4422C67.0151 13.4422 67.0664 13.4422 67.1251 13.4422H75.5511V12.6942C75.5658 12.4449 75.6318 12.2249 75.7491 12.0342C75.8811 11.8435 76.0718 11.7189 76.3211 11.6602C76.5264 11.6162 76.7464 11.5942 76.9811 11.5942C77.2158 11.5942 77.4211 11.6529 77.5971 11.7702C77.8464 11.9022 78.0151 12.1002 78.1031 12.3642C78.2058 12.6135 78.2644 12.8995 78.2791 13.2222C78.2938 13.5302 78.2864 13.8529 78.2571 14.1902C78.2278 14.5275 78.2204 14.8355 78.2351 15.1142C78.2498 15.3929 78.2498 15.7375 78.2351 16.1482C78.2351 16.5589 78.1838 16.9622 78.0811 17.3582C77.9784 17.7395 77.8171 18.0622 77.5971 18.3262C77.3771 18.6049 77.0544 18.7442 76.6291 18.7442H66.5971ZM70.2931 6.5782C70.2931 6.24087 70.2711 5.92554 70.2271 5.6322C70.2124 5.38287 70.1538 5.1262 70.0511 4.8622C69.9924 4.7302 69.9338 4.61287 69.8751 4.5102C69.8164 4.39287 69.7284 4.2902 69.6111 4.2022C69.5231 4.09954 69.4131 4.01154 69.2811 3.9382C69.1491 3.86487 69.0024 3.79154 68.8411 3.7182C68.5331 3.60087 68.1664 3.5422 67.7411 3.5422C67.5358 3.5422 67.3378 3.5642 67.1471 3.6082C66.9564 3.63754 66.7804 3.68887 66.6191 3.7622C66.2964 3.8942 65.9884 4.10687 65.6951 4.4002C65.4458 4.67887 65.2844 5.04554 65.2111 5.5002C65.1671 5.86687 65.1744 6.18954 65.2331 6.4682C65.2624 6.79087 65.3651 7.07687 65.5411 7.3262C65.6144 7.4582 65.7098 7.57554 65.8271 7.6782C65.9444 7.78087 66.0838 7.88354 66.2451 7.9862C66.5091 8.14754 66.8831 8.26487 67.3671 8.3382C67.5284 8.35287 67.6824 8.3602 67.8291 8.3602C67.9904 8.3602 68.1518 8.34554 68.3131 8.3162C68.6358 8.2722 68.9144 8.17687 69.1491 8.0302C69.2958 7.97154 69.4278 7.8982 69.5451 7.8102C69.6624 7.7222 69.7724 7.61954 69.8751 7.5022C70.0804 7.20887 70.2198 6.90087 70.2931 6.5782ZM75.0671 16.6762C75.3018 16.6762 75.4484 16.6322 75.5071 16.5442C75.5804 16.4562 75.6171 16.2509 75.6171 15.9282C75.6024 15.6935 75.5144 15.5689 75.3531 15.5542C75.1918 15.5249 75.0084 15.5102 74.8031 15.5102H74.2091H73.2191H71.5031C71.0338 15.4955 70.5571 15.4955 70.0731 15.5102C69.5891 15.5102 69.1124 15.5102 68.6431 15.5102C68.5258 15.5102 68.3644 15.5102 68.1591 15.5102C67.9684 15.4955 67.7704 15.4955 67.5651 15.5102C67.3598 15.5102 67.1764 15.5322 67.0151 15.5762C66.8538 15.6202 66.7658 15.6862 66.7511 15.7742C66.7071 16.1115 66.7438 16.3462 66.8611 16.4782C66.9784 16.5955 67.1911 16.6469 67.4991 16.6322C67.8218 16.6322 68.1371 16.6469 68.4451 16.6762C68.7531 16.6909 69.0758 16.6909 69.4131 16.6762C70.2198 16.6469 70.9678 16.6395 71.6571 16.6542C72.3464 16.6689 73.0871 16.6762 73.8791 16.6762H75.0671ZM78.3011 9.3282C78.2718 9.44554 78.2498 9.5482 78.2351 9.6362C78.2204 9.70954 78.1984 9.78287 78.1691 9.8562C78.1398 9.92954 78.1104 9.99554 78.0811 10.0542C78.0518 10.1129 78.0224 10.1789 77.9931 10.2522C77.9051 10.4135 77.7804 10.5309 77.6191 10.6042C77.4138 10.7362 77.2158 10.8022 77.0251 10.8022C76.7758 10.8022 76.5264 10.7069 76.2771 10.5162C76.1891 10.4722 76.1084 10.4135 76.0351 10.3402C75.9764 10.2522 75.9251 10.1642 75.8811 10.0762C75.7638 9.8562 75.6978 9.60687 75.6831 9.3282C75.6831 9.2842 75.6758 9.12287 75.6611 8.8442C75.6611 8.56554 75.6611 8.2282 75.6611 7.8322C75.6611 7.42154 75.6611 6.98154 75.6611 6.5122C75.6611 6.0282 75.6611 5.57354 75.6611 5.1482C75.6611 4.7082 75.6611 4.32687 75.6611 4.0042C75.6611 3.68154 75.6611 3.46154 75.6611 3.3442V2.5522C75.6611 2.36154 75.6831 2.2002 75.7271 2.0682C75.7711 1.8482 75.9031 1.6062 76.1231 1.3422C76.2404 1.2102 76.4091 1.10754 76.6291 1.0342C76.8491 0.975536 77.0764 0.953536 77.3111 0.968202C77.5604 1.0122 77.7511 1.09287 77.8831 1.2102C78.0298 1.31287 78.1324 1.44487 78.1911 1.6062C78.2498 1.76754 78.2791 1.95087 78.2791 2.1562C78.2938 2.34687 78.3011 2.5522 78.3011 2.7722V9.3282Z" fill="#40382E"/>
</svg>
